<mxfile host="app.diagrams.net" agent="Mozilla/5.0 (Windows NT 10.0; Win64; x64; rv:134.0) Gecko/20100101 Firefox/134.0" version="26.0.11">
  <diagram name="Page-1" id="L3M2RedUAsprgC-HmwrY">
    <mxGraphModel dx="2284" dy="1815" grid="1" gridSize="10" guides="1" tooltips="1" connect="1" arrows="1" fold="1" page="1" pageScale="1" pageWidth="850" pageHeight="1100" background="#ffffff" math="0" shadow="0">
      <root>
        <mxCell id="0" />
        <mxCell id="1" parent="0" />
        <mxCell id="lNUg0GOB951emykACgn2-393" style="rounded=0;orthogonalLoop=1;jettySize=auto;html=1;exitX=0.5;exitY=1;exitDx=0;exitDy=0;endArrow=none;startFill=0;" parent="1" source="CRWU9ODZ9l8GW1G6nZEh-7" target="lNUg0GOB951emykACgn2-307" edge="1">
          <mxGeometry relative="1" as="geometry">
            <mxPoint x="230" y="330" as="sourcePoint" />
          </mxGeometry>
        </mxCell>
        <mxCell id="UIaZnT7w7h5Eu3xHV6hs-57" style="rounded=0;orthogonalLoop=1;jettySize=auto;html=1;exitX=0.5;exitY=0;exitDx=0;exitDy=0;entryX=0.5;entryY=1;entryDx=0;entryDy=0;endArrow=none;endFill=0;dashed=1;" parent="1" source="CRWU9ODZ9l8GW1G6nZEh-7" target="CRWU9ODZ9l8GW1G6nZEh-10" edge="1">
          <mxGeometry relative="1" as="geometry">
            <mxPoint x="230" y="270" as="sourcePoint" />
            <mxPoint x="230" y="205" as="targetPoint" />
          </mxGeometry>
        </mxCell>
        <mxCell id="lNUg0GOB951emykACgn2-321" style="rounded=0;orthogonalLoop=1;jettySize=auto;html=1;exitX=0.5;exitY=0;exitDx=0;exitDy=0;entryX=0.5;entryY=1;entryDx=0;entryDy=0;endArrow=none;startFill=0;" parent="1" source="CRWU9ODZ9l8GW1G6nZEh-4" target="lNUg0GOB951emykACgn2-320" edge="1">
          <mxGeometry relative="1" as="geometry" />
        </mxCell>
        <mxCell id="lNUg0GOB951emykACgn2-362" style="rounded=0;orthogonalLoop=1;jettySize=auto;html=1;exitX=1;exitY=0.5;exitDx=0;exitDy=0;endArrow=none;startFill=0;entryX=0.5;entryY=1;entryDx=0;entryDy=0;" parent="1" source="CRWU9ODZ9l8GW1G6nZEh-40" target="lNUg0GOB951emykACgn2-364" edge="1">
          <mxGeometry relative="1" as="geometry">
            <mxPoint x="480" y="579.6666666666667" as="targetPoint" />
            <mxPoint x="460" y="580" as="sourcePoint" />
          </mxGeometry>
        </mxCell>
        <mxCell id="lNUg0GOB951emykACgn2-363" style="rounded=0;orthogonalLoop=1;jettySize=auto;html=1;exitX=1;exitY=0.5;exitDx=0;exitDy=0;endArrow=none;startFill=0;entryX=0.5;entryY=0;entryDx=0;entryDy=0;" parent="1" source="CRWU9ODZ9l8GW1G6nZEh-40" target="lNUg0GOB951emykACgn2-365" edge="1">
          <mxGeometry relative="1" as="geometry">
            <mxPoint x="480" y="540" as="targetPoint" />
            <mxPoint x="460" y="580" as="sourcePoint" />
          </mxGeometry>
        </mxCell>
        <mxCell id="lNUg0GOB951emykACgn2-297" value="Length" style="ellipse;whiteSpace=wrap;html=1;align=center;" parent="1" vertex="1">
          <mxGeometry x="-100" y="640" width="100" height="40" as="geometry" />
        </mxCell>
        <mxCell id="lNUg0GOB951emykACgn2-298" value="Speed" style="ellipse;whiteSpace=wrap;html=1;align=center;" parent="1" vertex="1">
          <mxGeometry x="-100" y="480" width="100" height="40" as="geometry" />
        </mxCell>
        <mxCell id="lNUg0GOB951emykACgn2-303" value="" style="endArrow=none;html=1;rounded=0;exitX=0.5;exitY=0;exitDx=0;exitDy=0;entryX=0;entryY=0.5;entryDx=0;entryDy=0;" parent="1" source="lNUg0GOB951emykACgn2-297" edge="1">
          <mxGeometry relative="1" as="geometry">
            <mxPoint x="-20" y="500" as="sourcePoint" />
            <mxPoint x="-20" y="580" as="targetPoint" />
          </mxGeometry>
        </mxCell>
        <mxCell id="lNUg0GOB951emykACgn2-304" value="" style="endArrow=none;html=1;rounded=0;exitX=0.5;exitY=1;exitDx=0;exitDy=0;entryX=0;entryY=0.5;entryDx=0;entryDy=0;" parent="1" source="lNUg0GOB951emykACgn2-298" edge="1">
          <mxGeometry relative="1" as="geometry">
            <mxPoint y="438" as="sourcePoint" />
            <mxPoint x="-20" y="580" as="targetPoint" />
          </mxGeometry>
        </mxCell>
        <mxCell id="CRWU9ODZ9l8GW1G6nZEh-34" style="rounded=0;orthogonalLoop=1;jettySize=auto;html=1;exitX=0.5;exitY=1;exitDx=0;exitDy=0;entryX=0.5;entryY=0;entryDx=0;entryDy=0;endArrow=none;startFill=0;" edge="1" parent="1" source="lNUg0GOB951emykACgn2-307" target="UIaZnT7w7h5Eu3xHV6hs-93">
          <mxGeometry relative="1" as="geometry" />
        </mxCell>
        <mxCell id="lNUg0GOB951emykACgn2-307" value="Components" style="whiteSpace=wrap;html=1;align=center;" parent="1" vertex="1">
          <mxGeometry x="180" y="440" width="100" height="40" as="geometry" />
        </mxCell>
        <mxCell id="lNUg0GOB951emykACgn2-320" value="File Paths" style="ellipse;whiteSpace=wrap;html=1;align=center;" parent="1" vertex="1">
          <mxGeometry x="600" y="400" width="100" height="40" as="geometry" />
        </mxCell>
        <mxCell id="lNUg0GOB951emykACgn2-361" value="N" style="text;html=1;align=center;verticalAlign=middle;resizable=0;points=[];autosize=1;strokeColor=none;fillColor=none;" parent="1" vertex="1">
          <mxGeometry x="235" y="410" width="30" height="30" as="geometry" />
        </mxCell>
        <mxCell id="lNUg0GOB951emykACgn2-364" value="Width" style="ellipse;whiteSpace=wrap;html=1;align=center;" parent="1" vertex="1">
          <mxGeometry x="460" y="480" width="100" height="40" as="geometry" />
        </mxCell>
        <mxCell id="lNUg0GOB951emykACgn2-365" value="Height" style="ellipse;whiteSpace=wrap;html=1;align=center;" parent="1" vertex="1">
          <mxGeometry x="460" y="640" width="100" height="40" as="geometry" />
        </mxCell>
        <mxCell id="CRWU9ODZ9l8GW1G6nZEh-20" style="rounded=0;orthogonalLoop=1;jettySize=auto;html=1;exitX=0.5;exitY=1;exitDx=0;exitDy=0;entryX=0.5;entryY=0;entryDx=0;entryDy=0;endArrow=none;startFill=0;dashed=1;" edge="1" parent="1" source="UIaZnT7w7h5Eu3xHV6hs-14" target="CRWU9ODZ9l8GW1G6nZEh-6">
          <mxGeometry relative="1" as="geometry" />
        </mxCell>
        <mxCell id="UIaZnT7w7h5Eu3xHV6hs-14" value="Scene" style="whiteSpace=wrap;html=1;align=center;" parent="1" vertex="1">
          <mxGeometry x="180" y="-40" width="100" height="40" as="geometry" />
        </mxCell>
        <mxCell id="UIaZnT7w7h5Eu3xHV6hs-43" style="rounded=0;orthogonalLoop=1;jettySize=auto;html=1;exitX=0.5;exitY=1;exitDx=0;exitDy=0;entryX=0.5;entryY=0;entryDx=0;entryDy=0;endArrow=none;endFill=0;" parent="1" source="CRWU9ODZ9l8GW1G6nZEh-6" target="CRWU9ODZ9l8GW1G6nZEh-10" edge="1">
          <mxGeometry relative="1" as="geometry">
            <mxPoint x="230" y="120" as="sourcePoint" />
            <mxPoint x="230" y="165" as="targetPoint" />
          </mxGeometry>
        </mxCell>
        <mxCell id="UIaZnT7w7h5Eu3xHV6hs-26" style="rounded=0;orthogonalLoop=1;jettySize=auto;html=1;exitX=0.5;exitY=1;exitDx=0;exitDy=0;entryX=0.5;entryY=0;entryDx=0;entryDy=0;endArrow=none;endFill=0;" parent="1" source="UIaZnT7w7h5Eu3xHV6hs-25" target="UIaZnT7w7h5Eu3xHV6hs-14" edge="1">
          <mxGeometry relative="1" as="geometry" />
        </mxCell>
        <mxCell id="UIaZnT7w7h5Eu3xHV6hs-25" value="Scene ID" style="ellipse;whiteSpace=wrap;html=1;align=center;fontStyle=4;" parent="1" vertex="1">
          <mxGeometry x="-30" y="-120" width="100" height="40" as="geometry" />
        </mxCell>
        <mxCell id="UIaZnT7w7h5Eu3xHV6hs-29" style="rounded=0;orthogonalLoop=1;jettySize=auto;html=1;exitX=0.5;exitY=1;exitDx=0;exitDy=0;entryX=0.5;entryY=0;entryDx=0;entryDy=0;endArrow=none;endFill=0;" parent="1" source="UIaZnT7w7h5Eu3xHV6hs-28" target="UIaZnT7w7h5Eu3xHV6hs-14" edge="1">
          <mxGeometry relative="1" as="geometry" />
        </mxCell>
        <mxCell id="UIaZnT7w7h5Eu3xHV6hs-28" value="Name" style="ellipse;whiteSpace=wrap;html=1;align=center;" parent="1" vertex="1">
          <mxGeometry x="290" y="-160" width="100" height="40" as="geometry" />
        </mxCell>
        <mxCell id="UIaZnT7w7h5Eu3xHV6hs-33" style="rounded=0;orthogonalLoop=1;jettySize=auto;html=1;exitX=0.5;exitY=1;exitDx=0;exitDy=0;entryX=0.5;entryY=0;entryDx=0;entryDy=0;endArrow=none;endFill=0;" parent="1" source="UIaZnT7w7h5Eu3xHV6hs-32" target="UIaZnT7w7h5Eu3xHV6hs-14" edge="1">
          <mxGeometry relative="1" as="geometry" />
        </mxCell>
        <mxCell id="UIaZnT7w7h5Eu3xHV6hs-32" value="Date Created" style="ellipse;whiteSpace=wrap;html=1;align=center;" parent="1" vertex="1">
          <mxGeometry x="70" y="-160" width="100" height="40" as="geometry" />
        </mxCell>
        <mxCell id="UIaZnT7w7h5Eu3xHV6hs-38" style="rounded=0;orthogonalLoop=1;jettySize=auto;html=1;exitX=0.5;exitY=1;exitDx=0;exitDy=0;entryX=0.5;entryY=0;entryDx=0;entryDy=0;endArrow=none;endFill=0;" parent="1" source="CRWU9ODZ9l8GW1G6nZEh-11" target="UIaZnT7w7h5Eu3xHV6hs-14" edge="1">
          <mxGeometry relative="1" as="geometry">
            <mxPoint x="450" y="-80" as="sourcePoint" />
          </mxGeometry>
        </mxCell>
        <mxCell id="UIaZnT7w7h5Eu3xHV6hs-51" style="rounded=0;orthogonalLoop=1;jettySize=auto;html=1;exitX=0;exitY=0.5;exitDx=0;exitDy=0;entryX=1;entryY=0.5;entryDx=0;entryDy=0;endArrow=none;endFill=0;" parent="1" source="CRWU9ODZ9l8GW1G6nZEh-10" target="UIaZnT7w7h5Eu3xHV6hs-49" edge="1">
          <mxGeometry relative="1" as="geometry">
            <mxPoint x="180" y="185" as="sourcePoint" />
          </mxGeometry>
        </mxCell>
        <mxCell id="UIaZnT7w7h5Eu3xHV6hs-52" style="rounded=0;orthogonalLoop=1;jettySize=auto;html=1;exitX=1;exitY=0.5;exitDx=0;exitDy=0;entryX=0;entryY=0.5;entryDx=0;entryDy=0;endArrow=none;endFill=0;" parent="1" source="CRWU9ODZ9l8GW1G6nZEh-10" target="UIaZnT7w7h5Eu3xHV6hs-50" edge="1">
          <mxGeometry relative="1" as="geometry">
            <mxPoint x="280" y="185" as="sourcePoint" />
          </mxGeometry>
        </mxCell>
        <mxCell id="UIaZnT7w7h5Eu3xHV6hs-46" value="N" style="text;html=1;align=center;verticalAlign=middle;resizable=0;points=[];autosize=1;strokeColor=none;fillColor=none;" parent="1" vertex="1">
          <mxGeometry x="230" y="135" width="30" height="30" as="geometry" />
        </mxCell>
        <mxCell id="UIaZnT7w7h5Eu3xHV6hs-49" value="Unique ID" style="ellipse;whiteSpace=wrap;html=1;align=center;fontStyle=4;" parent="1" vertex="1">
          <mxGeometry x="-20" y="165" width="100" height="40" as="geometry" />
        </mxCell>
        <mxCell id="UIaZnT7w7h5Eu3xHV6hs-50" value="Time Created" style="ellipse;whiteSpace=wrap;html=1;align=center;" parent="1" vertex="1">
          <mxGeometry x="400" y="165" width="100" height="40" as="geometry" />
        </mxCell>
        <mxCell id="UIaZnT7w7h5Eu3xHV6hs-62" style="rounded=0;orthogonalLoop=1;jettySize=auto;html=1;exitX=0.5;exitY=1;exitDx=0;exitDy=0;entryX=0.5;entryY=0;entryDx=0;entryDy=0;endArrow=none;endFill=0;" parent="1" source="UIaZnT7w7h5Eu3xHV6hs-58" target="UIaZnT7w7h5Eu3xHV6hs-61" edge="1">
          <mxGeometry relative="1" as="geometry" />
        </mxCell>
        <mxCell id="UIaZnT7w7h5Eu3xHV6hs-65" style="rounded=0;orthogonalLoop=1;jettySize=auto;html=1;exitX=0.5;exitY=1;exitDx=0;exitDy=0;entryX=0.5;entryY=0;entryDx=0;entryDy=0;endArrow=none;endFill=0;" parent="1" source="UIaZnT7w7h5Eu3xHV6hs-58" target="UIaZnT7w7h5Eu3xHV6hs-64" edge="1">
          <mxGeometry relative="1" as="geometry" />
        </mxCell>
        <mxCell id="UIaZnT7w7h5Eu3xHV6hs-58" value="Editor" style="rounded=0;whiteSpace=wrap;html=1;" parent="1" vertex="1">
          <mxGeometry x="-60" y="-500" width="120" height="60" as="geometry" />
        </mxCell>
        <mxCell id="UIaZnT7w7h5Eu3xHV6hs-63" style="rounded=0;orthogonalLoop=1;jettySize=auto;html=1;exitX=0.5;exitY=1;exitDx=0;exitDy=0;entryX=0.5;entryY=0;entryDx=0;entryDy=0;endArrow=none;endFill=0;" parent="1" source="UIaZnT7w7h5Eu3xHV6hs-61" target="UIaZnT7w7h5Eu3xHV6hs-14" edge="1">
          <mxGeometry relative="1" as="geometry" />
        </mxCell>
        <mxCell id="UIaZnT7w7h5Eu3xHV6hs-61" value="Has" style="shape=rhombus;perimeter=rhombusPerimeter;whiteSpace=wrap;html=1;align=center;" parent="1" vertex="1">
          <mxGeometry x="170" y="-220" width="120" height="60" as="geometry" />
        </mxCell>
        <mxCell id="UIaZnT7w7h5Eu3xHV6hs-67" style="rounded=0;orthogonalLoop=1;jettySize=auto;html=1;exitX=0.5;exitY=1;exitDx=0;exitDy=0;entryX=0.5;entryY=0;entryDx=0;entryDy=0;endArrow=none;endFill=0;" parent="1" source="UIaZnT7w7h5Eu3xHV6hs-64" target="UIaZnT7w7h5Eu3xHV6hs-66" edge="1">
          <mxGeometry relative="1" as="geometry" />
        </mxCell>
        <mxCell id="UIaZnT7w7h5Eu3xHV6hs-64" value="Has" style="shape=rhombus;perimeter=rhombusPerimeter;whiteSpace=wrap;html=1;align=center;" parent="1" vertex="1">
          <mxGeometry x="-290" y="-220" width="120" height="60" as="geometry" />
        </mxCell>
        <mxCell id="UIaZnT7w7h5Eu3xHV6hs-75" style="rounded=0;orthogonalLoop=1;jettySize=auto;html=1;exitX=1;exitY=0.5;exitDx=0;exitDy=0;entryX=0;entryY=0.5;entryDx=0;entryDy=0;endArrow=none;endFill=0;" parent="1" source="UIaZnT7w7h5Eu3xHV6hs-66" target="UIaZnT7w7h5Eu3xHV6hs-74" edge="1">
          <mxGeometry relative="1" as="geometry" />
        </mxCell>
        <mxCell id="UIaZnT7w7h5Eu3xHV6hs-81" style="edgeStyle=orthogonalEdgeStyle;rounded=0;orthogonalLoop=1;jettySize=auto;html=1;exitX=0.5;exitY=1;exitDx=0;exitDy=0;entryX=0.5;entryY=0;entryDx=0;entryDy=0;endArrow=none;startFill=0;" parent="1" source="UIaZnT7w7h5Eu3xHV6hs-66" target="UIaZnT7w7h5Eu3xHV6hs-80" edge="1">
          <mxGeometry relative="1" as="geometry" />
        </mxCell>
        <mxCell id="UIaZnT7w7h5Eu3xHV6hs-66" value="UI" style="rounded=0;whiteSpace=wrap;html=1;" parent="1" vertex="1">
          <mxGeometry x="-290" y="-50" width="120" height="60" as="geometry" />
        </mxCell>
        <mxCell id="UIaZnT7w7h5Eu3xHV6hs-73" style="rounded=0;orthogonalLoop=1;jettySize=auto;html=1;exitX=1;exitY=0.5;exitDx=0;exitDy=0;entryX=0;entryY=0.5;entryDx=0;entryDy=0;endArrow=none;endFill=0;" parent="1" source="UIaZnT7w7h5Eu3xHV6hs-72" target="UIaZnT7w7h5Eu3xHV6hs-66" edge="1">
          <mxGeometry relative="1" as="geometry" />
        </mxCell>
        <mxCell id="UIaZnT7w7h5Eu3xHV6hs-72" value="File system" style="ellipse;whiteSpace=wrap;html=1;align=center;" parent="1" vertex="1">
          <mxGeometry x="-460" y="-40" width="100" height="40" as="geometry" />
        </mxCell>
        <mxCell id="UIaZnT7w7h5Eu3xHV6hs-74" value="Console" style="ellipse;whiteSpace=wrap;html=1;align=center;" parent="1" vertex="1">
          <mxGeometry x="-90" y="-40" width="100" height="40" as="geometry" />
        </mxCell>
        <mxCell id="UIaZnT7w7h5Eu3xHV6hs-76" value="Windows" style="rounded=0;whiteSpace=wrap;html=1;" parent="1" vertex="1">
          <mxGeometry x="-290" y="155" width="120" height="60" as="geometry" />
        </mxCell>
        <mxCell id="UIaZnT7w7h5Eu3xHV6hs-78" value="1" style="text;html=1;align=center;verticalAlign=middle;resizable=0;points=[];autosize=1;strokeColor=none;fillColor=none;" parent="1" vertex="1">
          <mxGeometry x="-230" y="-160" width="30" height="30" as="geometry" />
        </mxCell>
        <mxCell id="UIaZnT7w7h5Eu3xHV6hs-79" value="N" style="text;html=1;align=center;verticalAlign=middle;resizable=0;points=[];autosize=1;strokeColor=none;fillColor=none;" parent="1" vertex="1">
          <mxGeometry x="-230" y="125" width="30" height="30" as="geometry" />
        </mxCell>
        <mxCell id="UIaZnT7w7h5Eu3xHV6hs-82" style="edgeStyle=orthogonalEdgeStyle;rounded=0;orthogonalLoop=1;jettySize=auto;html=1;exitX=0.5;exitY=1;exitDx=0;exitDy=0;entryX=0.5;entryY=0;entryDx=0;entryDy=0;endArrow=none;startFill=0;" parent="1" source="UIaZnT7w7h5Eu3xHV6hs-80" target="UIaZnT7w7h5Eu3xHV6hs-76" edge="1">
          <mxGeometry relative="1" as="geometry" />
        </mxCell>
        <mxCell id="UIaZnT7w7h5Eu3xHV6hs-80" value="Contains" style="shape=rhombus;perimeter=rhombusPerimeter;whiteSpace=wrap;html=1;align=center;" parent="1" vertex="1">
          <mxGeometry x="-290" y="50" width="120" height="60" as="geometry" />
        </mxCell>
        <mxCell id="UIaZnT7w7h5Eu3xHV6hs-83" value="1" style="text;html=1;align=center;verticalAlign=middle;resizable=0;points=[];autosize=1;strokeColor=none;fillColor=none;" parent="1" vertex="1">
          <mxGeometry x="-230" y="10" width="30" height="30" as="geometry" />
        </mxCell>
        <mxCell id="UIaZnT7w7h5Eu3xHV6hs-84" value="1" style="text;html=1;align=center;verticalAlign=middle;resizable=0;points=[];autosize=1;strokeColor=none;fillColor=none;" parent="1" vertex="1">
          <mxGeometry x="-140" y="-312" width="30" height="30" as="geometry" />
        </mxCell>
        <mxCell id="UIaZnT7w7h5Eu3xHV6hs-85" value="1" style="text;html=1;align=center;verticalAlign=middle;resizable=0;points=[];autosize=1;strokeColor=none;fillColor=none;" parent="1" vertex="1">
          <mxGeometry x="100" y="-320" width="30" height="30" as="geometry" />
        </mxCell>
        <mxCell id="UIaZnT7w7h5Eu3xHV6hs-86" value="1" style="text;html=1;align=center;verticalAlign=middle;resizable=0;points=[];autosize=1;strokeColor=none;fillColor=none;" parent="1" vertex="1">
          <mxGeometry x="230" y="-160" width="30" height="30" as="geometry" />
        </mxCell>
        <mxCell id="UIaZnT7w7h5Eu3xHV6hs-90" style="rounded=0;orthogonalLoop=1;jettySize=auto;html=1;exitX=0.5;exitY=1;exitDx=0;exitDy=0;entryX=0.5;entryY=0;entryDx=0;entryDy=0;endArrow=none;endFill=0;" parent="1" source="UIaZnT7w7h5Eu3xHV6hs-89" target="UIaZnT7w7h5Eu3xHV6hs-58" edge="1">
          <mxGeometry relative="1" as="geometry" />
        </mxCell>
        <mxCell id="UIaZnT7w7h5Eu3xHV6hs-89" value="User Input" style="ellipse;whiteSpace=wrap;html=1;align=center;" parent="1" vertex="1">
          <mxGeometry x="-50" y="-600" width="100" height="40" as="geometry" />
        </mxCell>
        <mxCell id="CRWU9ODZ9l8GW1G6nZEh-29" style="rounded=0;orthogonalLoop=1;jettySize=auto;html=1;exitX=1;exitY=0.5;exitDx=0;exitDy=0;entryX=0;entryY=0.5;entryDx=0;entryDy=0;dashed=1;endArrow=none;startFill=0;" edge="1" parent="1" source="UIaZnT7w7h5Eu3xHV6hs-93" target="CRWU9ODZ9l8GW1G6nZEh-40">
          <mxGeometry relative="1" as="geometry">
            <mxPoint x="360" y="580" as="targetPoint" />
          </mxGeometry>
        </mxCell>
        <mxCell id="CRWU9ODZ9l8GW1G6nZEh-33" style="rounded=0;orthogonalLoop=1;jettySize=auto;html=1;exitX=0.5;exitY=1;exitDx=0;exitDy=0;entryX=0.5;entryY=0;entryDx=0;entryDy=0;dashed=1;endArrow=none;startFill=0;" edge="1" parent="1" source="UIaZnT7w7h5Eu3xHV6hs-93" target="CRWU9ODZ9l8GW1G6nZEh-43">
          <mxGeometry relative="1" as="geometry">
            <mxPoint x="230" y="670" as="targetPoint" />
          </mxGeometry>
        </mxCell>
        <mxCell id="UIaZnT7w7h5Eu3xHV6hs-93" value="Has" style="shape=rhombus;perimeter=rhombusPerimeter;whiteSpace=wrap;html=1;align=center;" parent="1" vertex="1">
          <mxGeometry x="170" y="550" width="120" height="60" as="geometry" />
        </mxCell>
        <mxCell id="UIaZnT7w7h5Eu3xHV6hs-96" value="N" style="text;html=1;align=center;verticalAlign=middle;resizable=0;points=[];autosize=1;strokeColor=none;fillColor=none;" parent="1" vertex="1">
          <mxGeometry x="230" y="620" width="30" height="30" as="geometry" />
        </mxCell>
        <mxCell id="CRWU9ODZ9l8GW1G6nZEh-3" style="rounded=0;orthogonalLoop=1;jettySize=auto;html=1;exitX=1;exitY=0.5;exitDx=0;exitDy=0;entryX=0;entryY=0.5;entryDx=0;entryDy=0;endArrow=none;startFill=0;" edge="1" parent="1" source="CRWU9ODZ9l8GW1G6nZEh-2" target="CRWU9ODZ9l8GW1G6nZEh-38">
          <mxGeometry relative="1" as="geometry">
            <mxPoint x="-20" y="580" as="targetPoint" />
          </mxGeometry>
        </mxCell>
        <mxCell id="CRWU9ODZ9l8GW1G6nZEh-2" value="Audio Data" style="ellipse;whiteSpace=wrap;html=1;align=center;dashed=1;" vertex="1" parent="1">
          <mxGeometry x="-210" y="560" width="100" height="40" as="geometry" />
        </mxCell>
        <mxCell id="CRWU9ODZ9l8GW1G6nZEh-5" style="rounded=0;orthogonalLoop=1;jettySize=auto;html=1;exitX=0;exitY=0.5;exitDx=0;exitDy=0;entryX=1;entryY=0.5;entryDx=0;entryDy=0;endArrow=none;startFill=0;" edge="1" parent="1" source="CRWU9ODZ9l8GW1G6nZEh-4" target="CRWU9ODZ9l8GW1G6nZEh-40">
          <mxGeometry relative="1" as="geometry">
            <mxPoint x="460" y="580" as="targetPoint" />
          </mxGeometry>
        </mxCell>
        <mxCell id="CRWU9ODZ9l8GW1G6nZEh-4" value="Image Data" style="ellipse;whiteSpace=wrap;html=1;align=center;dashed=1;" vertex="1" parent="1">
          <mxGeometry x="540" y="560" width="100" height="40" as="geometry" />
        </mxCell>
        <mxCell id="CRWU9ODZ9l8GW1G6nZEh-6" value="Has" style="shape=rhombus;double=1;perimeter=rhombusPerimeter;whiteSpace=wrap;html=1;align=center;" vertex="1" parent="1">
          <mxGeometry x="170" y="58" width="120" height="60" as="geometry" />
        </mxCell>
        <mxCell id="CRWU9ODZ9l8GW1G6nZEh-7" value="Contains" style="shape=rhombus;double=1;perimeter=rhombusPerimeter;whiteSpace=wrap;html=1;align=center;" vertex="1" parent="1">
          <mxGeometry x="170" y="280" width="120" height="60" as="geometry" />
        </mxCell>
        <mxCell id="CRWU9ODZ9l8GW1G6nZEh-10" value="Entity" style="whiteSpace=wrap;html=1;align=center;" vertex="1" parent="1">
          <mxGeometry x="180" y="165" width="100" height="40" as="geometry" />
        </mxCell>
        <mxCell id="CRWU9ODZ9l8GW1G6nZEh-11" value="Configuration" style="ellipse;shape=doubleEllipse;margin=3;whiteSpace=wrap;html=1;align=center;" vertex="1" parent="1">
          <mxGeometry x="400" y="-130" width="100" height="40" as="geometry" />
        </mxCell>
        <mxCell id="CRWU9ODZ9l8GW1G6nZEh-13" style="rounded=0;orthogonalLoop=1;jettySize=auto;html=1;exitX=0.5;exitY=1;exitDx=0;exitDy=0;entryX=0.5;entryY=0;entryDx=0;entryDy=0;endArrow=none;startFill=0;" edge="1" parent="1" source="CRWU9ODZ9l8GW1G6nZEh-12" target="UIaZnT7w7h5Eu3xHV6hs-66">
          <mxGeometry relative="1" as="geometry" />
        </mxCell>
        <mxCell id="CRWU9ODZ9l8GW1G6nZEh-12" value="Configuration" style="ellipse;shape=doubleEllipse;margin=3;whiteSpace=wrap;html=1;align=center;" vertex="1" parent="1">
          <mxGeometry x="-420" y="-160" width="100" height="40" as="geometry" />
        </mxCell>
        <mxCell id="CRWU9ODZ9l8GW1G6nZEh-15" style="rounded=0;orthogonalLoop=1;jettySize=auto;html=1;exitX=0.5;exitY=0;exitDx=0;exitDy=0;entryX=0.5;entryY=1;entryDx=0;entryDy=0;endArrow=none;startFill=0;" edge="1" parent="1" source="CRWU9ODZ9l8GW1G6nZEh-14" target="CRWU9ODZ9l8GW1G6nZEh-4">
          <mxGeometry relative="1" as="geometry" />
        </mxCell>
        <mxCell id="CRWU9ODZ9l8GW1G6nZEh-14" value="Image Buffers" style="ellipse;whiteSpace=wrap;html=1;align=center;" vertex="1" parent="1">
          <mxGeometry x="600" y="720" width="100" height="40" as="geometry" />
        </mxCell>
        <mxCell id="CRWU9ODZ9l8GW1G6nZEh-16" style="rounded=0;orthogonalLoop=1;jettySize=auto;html=1;exitX=0.5;exitY=0;exitDx=0;exitDy=0;entryX=0.5;entryY=1;entryDx=0;entryDy=0;endArrow=none;startFill=0;" edge="1" parent="1" target="CRWU9ODZ9l8GW1G6nZEh-17" source="CRWU9ODZ9l8GW1G6nZEh-2">
          <mxGeometry relative="1" as="geometry">
            <mxPoint x="-280" y="560" as="sourcePoint" />
          </mxGeometry>
        </mxCell>
        <mxCell id="CRWU9ODZ9l8GW1G6nZEh-17" value="File Paths" style="ellipse;whiteSpace=wrap;html=1;align=center;" vertex="1" parent="1">
          <mxGeometry x="-300" y="400" width="100" height="40" as="geometry" />
        </mxCell>
        <mxCell id="CRWU9ODZ9l8GW1G6nZEh-18" style="rounded=0;orthogonalLoop=1;jettySize=auto;html=1;exitX=0.5;exitY=0;exitDx=0;exitDy=0;entryX=0.5;entryY=1;entryDx=0;entryDy=0;endArrow=none;startFill=0;" edge="1" parent="1" target="CRWU9ODZ9l8GW1G6nZEh-2" source="CRWU9ODZ9l8GW1G6nZEh-19">
          <mxGeometry relative="1" as="geometry">
            <mxPoint x="-275" y="800" as="sourcePoint" />
          </mxGeometry>
        </mxCell>
        <mxCell id="CRWU9ODZ9l8GW1G6nZEh-19" value="Audio Buffers" style="ellipse;whiteSpace=wrap;html=1;align=center;" vertex="1" parent="1">
          <mxGeometry x="-300" y="720" width="100" height="40" as="geometry" />
        </mxCell>
        <mxCell id="CRWU9ODZ9l8GW1G6nZEh-21" value="1" style="text;html=1;align=center;verticalAlign=middle;resizable=0;points=[];autosize=1;strokeColor=none;fillColor=none;" vertex="1" parent="1">
          <mxGeometry x="230" width="30" height="30" as="geometry" />
        </mxCell>
        <mxCell id="CRWU9ODZ9l8GW1G6nZEh-36" value="N" style="text;html=1;align=center;verticalAlign=middle;resizable=0;points=[];autosize=1;strokeColor=none;fillColor=none;" vertex="1" parent="1">
          <mxGeometry x="230" y="205" width="30" height="30" as="geometry" />
        </mxCell>
        <mxCell id="CRWU9ODZ9l8GW1G6nZEh-37" value="1" style="text;html=1;align=center;verticalAlign=middle;resizable=0;points=[];autosize=1;strokeColor=none;fillColor=none;" vertex="1" parent="1">
          <mxGeometry x="230" y="480" width="30" height="30" as="geometry" />
        </mxCell>
        <mxCell id="CRWU9ODZ9l8GW1G6nZEh-38" value="Audio Player" style="ellipse;whiteSpace=wrap;html=1;align=center;dashed=1;" vertex="1" parent="1">
          <mxGeometry x="20" y="560" width="100" height="40" as="geometry" />
        </mxCell>
        <mxCell id="CRWU9ODZ9l8GW1G6nZEh-39" style="rounded=0;orthogonalLoop=1;jettySize=auto;html=1;exitX=1;exitY=0.5;exitDx=0;exitDy=0;entryX=0;entryY=0.5;entryDx=0;entryDy=0;endArrow=none;startFill=0;dashed=1;" edge="1" parent="1" source="CRWU9ODZ9l8GW1G6nZEh-38" target="UIaZnT7w7h5Eu3xHV6hs-93">
          <mxGeometry relative="1" as="geometry" />
        </mxCell>
        <mxCell id="CRWU9ODZ9l8GW1G6nZEh-40" value="Texture Map" style="ellipse;whiteSpace=wrap;html=1;align=center;dashed=1;" vertex="1" parent="1">
          <mxGeometry x="340" y="560" width="100" height="40" as="geometry" />
        </mxCell>
        <mxCell id="CRWU9ODZ9l8GW1G6nZEh-41" value="1" style="text;html=1;align=center;verticalAlign=middle;resizable=0;points=[];autosize=1;strokeColor=none;fillColor=none;" vertex="1" parent="1">
          <mxGeometry x="290" y="550" width="30" height="30" as="geometry" />
        </mxCell>
        <mxCell id="CRWU9ODZ9l8GW1G6nZEh-42" value="1" style="text;html=1;align=center;verticalAlign=middle;resizable=0;points=[];autosize=1;strokeColor=none;fillColor=none;" vertex="1" parent="1">
          <mxGeometry x="140" y="550" width="30" height="30" as="geometry" />
        </mxCell>
        <mxCell id="CRWU9ODZ9l8GW1G6nZEh-43" value="Attributes" style="ellipse;whiteSpace=wrap;html=1;align=center;" vertex="1" parent="1">
          <mxGeometry x="180" y="650" width="100" height="40" as="geometry" />
        </mxCell>
      </root>
    </mxGraphModel>
  </diagram>
</mxfile>
